<svg xmlns="http://www.w3.org/2000/svg" viewBox="0 0 1320 360" role="img" aria-labelledby="title desc">
  <title id="title">Jenny Delgado Centro Estética Láser</title>
  <desc id="desc">Logo horizontal con rostro lineal femenino, firma Jenny Delgado y subtítulo Centro Estética Láser.</desc>
  <rect width="1320" height="360" fill="#fff"/>
  <g transform="translate(62 18)">
    <path d="M46 42c39-37 113-53 169-26 49 24 78 73 70 126-8 58-45 103-96 127-50 24-114 22-150-16-36-39-38-100-17-148 7-17 14-44 24-63z" fill="#f5e4cf"/>
    <path d="M161 122c43-25 107-19 136 17 31 39 18 100-19 131-39 32-102 39-144 12-42-28-45-89-14-128 11-14 24-24 41-32z" fill="#f3a1bf"/>
    <g fill="none" stroke="#111" stroke-width="5.5" stroke-linecap="round" stroke-linejoin="round">
      <path d="M92 73c31-20 69-17 95 10"/>
      <path d="M104 99c30-11 55-7 78 12"/>
      <path d="M122 99c7 22 29 29 52 14"/>
      <path d="M143 112c-4-11 3-25 18-28"/>
      <path d="M95 78c-6 47 1 84 23 114 11 16 19 28 20 46"/>
      <path d="M184 119c-16 28-22 54-13 80"/>
      <path d="M180 198c19-20 47-17 68 1"/>
      <path d="M172 222c28 12 59 10 90-6"/>
      <path d="M181 199c20 8 42 8 66 0"/>
      <path d="M190 153c18-14 36-13 52 4"/>
      <path d="M192 170c17 7 33 6 49-6"/>
      <path d="M241 157c7 12 6 24-4 35"/>
      <path d="M160 231c14 28 43 39 81 35"/>
      <path d="M240 267c52-52 87-94 105-142"/>
      <path d="M160 266c-5 36-14 68-30 95"/>
    </g>
  </g>
  <text x="390" y="164" fill="#050505" font-family="Brush Script MT, Segoe Script, Lucida Handwriting, cursive" font-size="116" letter-spacing="0">Jenny Delgado</text>
  <text x="520" y="265" fill="#efacc2" font-family="Montserrat, Avenir Next, Arial, sans-serif" font-size="33" letter-spacing="18">CENTRO ESTETICA LASER</text>
</svg>
